<?xml version="1.0" encoding="utf-8"?>
<!-- Generator: Adobe Illustrator 27.0.0, SVG Export Plug-In . SVG Version: 6.00 Build 0)  -->
<svg version="1.1" id="Layer_1" xmlns="http://www.w3.org/2000/svg" xmlns:xlink="http://www.w3.org/1999/xlink" x="0px" y="0px"
	 viewBox="0 0 16 16" style="enable-background:new 0 0 16 16;" xml:space="preserve">
<style type="text/css">
	.st0{fill:#FFFFFF;}
	.st1{fill:none;}
</style>
<g>
	<path class="st0" d="M8,0C5.8,0,3.9,0.8,2.3,2.3S0,5.8,0,8s0.8,4.1,2.3,5.7S5.8,16,8,16s4.1-0.8,5.7-2.3S16,10.2,16,8
		s-0.8-4.1-2.3-5.7S10.2,0,8,0z M7,12.5l-1.4-1.4L8.7,8L5.6,4.9L7,3.5L11.5,8L7,12.5z"/>
	<polygon class="st1" points="7,3.5 5.6,4.9 8.7,8 5.6,11.1 7,12.5 11.5,8 	"/>
</g>
</svg>
